<svg version="1.1" id="Layer_1" xmlns="http://www.w3.org/2000/svg" xmlns:xlink="http://www.w3.org/1999/xlink" x="0px" y="0px"
	 width="100%" viewBox="0 0 500 500" enable-background="new 0 0 500 500" xml:space="preserve">
<path fill="#000000" opacity="1.000000" stroke="none" 
	d="
M222.000000,501.000000 
	C148.000015,501.000000 74.500038,501.000000 1.000039,501.000000 
	C1.000026,334.333405 1.000026,167.666779 1.000013,1.000129 
	C167.666565,1.000086 334.333130,1.000086 500.999756,1.000043 
	C500.999847,167.666534 500.999847,334.333069 500.999939,500.999817 
	C408.166656,501.000000 315.333344,501.000000 222.000000,501.000000 
M242.225784,99.560921 
	C242.225876,176.199158 242.300781,252.837555 242.130188,329.475403 
	C242.109161,338.922089 241.376938,348.459991 239.909225,357.788055 
	C237.899078,370.563599 231.007034,378.674927 220.494019,379.381561 
	C212.739807,379.902740 204.791534,377.796844 196.962006,376.642578 
	C195.853104,376.479095 194.927307,375.073547 193.371124,373.794403 
	C198.868240,372.437164 203.623276,371.970947 207.745132,370.105621 
	C217.927719,365.497620 223.250229,353.966492 220.901413,343.081116 
	C218.284058,330.951202 208.920197,323.589752 195.630020,323.213776 
	C183.717957,322.876801 174.460083,329.458893 171.215714,340.571747 
	C166.304459,357.394104 176.265442,376.183167 193.632019,382.748016 
	C208.993134,388.554718 224.783173,387.773010 240.428558,384.801758 
	C268.680145,379.436371 288.951172,364.078186 298.489594,336.175842 
	C303.567657,321.321228 304.599823,305.882782 304.615173,290.361115 
	C304.678009,226.884796 304.641479,163.408386 304.641510,99.932007 
	C304.641510,98.026909 304.641479,96.121811 304.641479,93.870178 
	C311.894043,93.870178 318.488892,93.870178 325.189056,93.870178 
	C325.189056,91.744102 325.189056,89.983131 325.189056,88.107140 
	C290.564056,88.107140 256.170990,88.107140 221.634003,88.107140 
	C221.634003,90.131874 221.634003,91.873688 221.634003,94.109161 
	C228.607956,94.109161 235.353073,94.109161 242.225769,94.109161 
	C242.225769,95.927696 242.225769,97.250679 242.225784,99.560921 
z"/>
<path fill="#FCFCFC" opacity="1.000000" stroke="none" 
	d="
M242.225769,99.067291 
	C242.225769,97.250679 242.225769,95.927696 242.225769,94.109161 
	C235.353073,94.109161 228.607956,94.109161 221.634003,94.109161 
	C221.634003,91.873688 221.634003,90.131874 221.634003,88.107140 
	C256.170990,88.107140 290.564056,88.107140 325.189056,88.107140 
	C325.189056,89.983131 325.189056,91.744102 325.189056,93.870178 
	C318.488892,93.870178 311.894043,93.870178 304.641479,93.870178 
	C304.641479,96.121811 304.641510,98.026909 304.641510,99.932007 
	C304.641479,163.408386 304.678009,226.884796 304.615173,290.361115 
	C304.599823,305.882782 303.567657,321.321228 298.489594,336.175842 
	C288.951172,364.078186 268.680145,379.436371 240.428558,384.801758 
	C224.783173,387.773010 208.993134,388.554718 193.632019,382.748016 
	C176.265442,376.183167 166.304459,357.394104 171.215714,340.571747 
	C174.460083,329.458893 183.717957,322.876801 195.630020,323.213776 
	C208.920197,323.589752 218.284058,330.951202 220.901413,343.081116 
	C223.250229,353.966492 217.927719,365.497620 207.745132,370.105621 
	C203.623276,371.970947 198.868240,372.437164 193.371124,373.794403 
	C194.927307,375.073547 195.853104,376.479095 196.962006,376.642578 
	C204.791534,377.796844 212.739807,379.902740 220.494019,379.381561 
	C231.007034,378.674927 237.899078,370.563599 239.909225,357.788055 
	C241.376938,348.459991 242.109161,338.922089 242.130188,329.475403 
	C242.300781,252.837555 242.225876,176.199158 242.225769,99.067291 
z"/>
</svg>